<svg xmlns="http://www.w3.org/2000/svg" width="30" height="26" viewBox="0 0 30 26">
  <path id="Icon_awesome-comment-dots" data-name="Icon awesome-comment-dots" d="M15,2C6.715,2,0,7.4,0,14.071a10.667,10.667,0,0,0,3.34,7.585,14.739,14.739,0,0,1-3.211,5.56A.465.465,0,0,0,.469,28a13.474,13.474,0,0,0,8.238-2.983A18.023,18.023,0,0,0,15,26.143c8.285,0,15-5.4,15-12.071S23.285,2,15,2ZM7.5,15.929a1.857,1.857,0,1,1,1.875-1.857A1.864,1.864,0,0,1,7.5,15.929Zm7.5,0a1.857,1.857,0,1,1,1.875-1.857A1.864,1.864,0,0,1,15,15.929Zm7.5,0a1.857,1.857,0,1,1,1.875-1.857A1.864,1.864,0,0,1,22.5,15.929Z" transform="translate(0 -2)" fill="#fb1"/>
</svg>
