<svg xmlns="http://www.w3.org/2000/svg" width="28.24" height="26" viewBox="0 0 28.24 26">
  <g id="Icon_ionic-md-thumbs-up" data-name="Icon ionic-md-thumbs-up" transform="translate(-3.375 -4.5)">
    <path id="Path_55" data-name="Path 55" d="M13.8,30.5H25.323a2.459,2.459,0,0,0,2.292-1.584l3.826-9.168a2.615,2.615,0,0,0,.174-.948V16.186c0-1.429-1.139-3.02-2.533-3.02H21.094L22.3,7.648l.04-.406a1.973,1.973,0,0,0-.556-1.374L20.431,4.5l-8.444,8.619a2.62,2.62,0,0,0-.737,1.835v13A2.54,2.54,0,0,0,13.8,30.5Z" fill="#fb1"/>
    <path id="Path_56" data-name="Path 56" d="M3.375,15.75h4.5V31.5h-4.5Z" transform="translate(0 -1)" fill="#fb1"/>
  </g>
</svg>
