<svg id="logo" xmlns="http://www.w3.org/2000/svg" width="141" height="23" viewBox="0 0 151 25">
  <g id="Icon_ionic-ios-paw" data-name="Icon ionic-ios-paw" transform="translate(52.349 2.375)">
    <path id="Path_6" data-name="Path 6" d="M22.8,5.646a1.537,1.537,0,0,0-.253-.021v.007h-.028c-1.547,0-3.016,1.821-3.361,4.24-.373,2.573.661,4.852,2.3,5.091a1.893,1.893,0,0,0,.281.021c1.547,0,3.016-1.821,3.361-4.24C25.474,8.163,24.441,5.885,22.8,5.646Z" transform="translate(-3.372 -5.625)" fill="#fb1"/>
    <path id="Path_7" data-name="Path 7" d="M22.542,5.625Z" transform="translate(-3.372 -5.625)" fill="#fb1"/>
    <path id="Path_8" data-name="Path 8" d="M31.1,11.911a2.036,2.036,0,0,0-.766-.148H30.3c-1.385.021-2.939,1.35-3.755,3.361-.977,2.4-.527,4.866,1.013,5.5a2.036,2.036,0,0,0,.766.148c1.392,0,2.967-1.336,3.79-3.361C33.089,15,32.632,12.544,31.1,11.911Z" transform="translate(-3.372 -7.185)" fill="#fb1"/>
    <path id="Path_9" data-name="Path 9" d="M23.034,20.77C21.08,17.7,20.236,16.552,18,16.552s-3.087,1.16-5.041,4.219c-1.673,2.616-5.055,2.834-5.9,5.055a3.222,3.222,0,0,0-.253,1.28,3.266,3.266,0,0,0,3.262,3.27c2.236,0,5.28-1.687,7.938-1.687s5.688,1.688,7.924,1.688a3.26,3.26,0,0,0,3.255-3.27,3.226,3.226,0,0,0-.26-1.28C28.083,23.6,24.708,23.386,23.034,20.77Z" transform="translate(-3.372 -9.625)" fill="#fb1"/>
    <path id="Path_10" data-name="Path 10" d="M14.259,14.977a1.894,1.894,0,0,0,.281-.021c1.645-.239,2.672-2.517,2.3-5.091-.352-2.426-1.821-4.24-3.361-4.24a1.893,1.893,0,0,0-.281.021c-1.645.239-2.672,2.517-2.3,5.091C11.25,13.155,12.72,14.977,14.259,14.977Z" transform="translate(-3.372 -5.625)" fill="#fb1"/>
    <path id="Path_11" data-name="Path 11" d="M8.445,20.623c1.54-.633,1.99-3.094,1.012-5.5-.823-2.025-2.4-3.361-3.79-3.361a2.036,2.036,0,0,0-.766.148c-1.54.633-1.99,3.094-1.013,5.5.823,2.025,2.4,3.361,3.79,3.361A2.036,2.036,0,0,0,8.445,20.623Z" transform="translate(-3.372 -7.185)" fill="#fb1"/>
  </g>
  <text id="PET" transform="translate(0 20)" fill="#2d3332" font-size="20" font-family="News701BT-BoldA, News701 BT" font-weight="700"><tspan x="0" y="0">PET</tspan></text>
  <text id="HELP" transform="translate(88 20)" fill="#2d3332" font-size="20" font-family="News701BT-BoldA, News701 BT" font-weight="700"><tspan x="0" y="0">HELP</tspan></text>
</svg>
