<svg xmlns="http://www.w3.org/2000/svg" width="29" height="26" viewBox="0 0 29 26">
  <g id="Icon_material-photo-camera" data-name="Icon material-photo-camera" transform="translate(-3 -3)">
    <path id="Path_51" data-name="Path 51" d="M22.8,18A4.8,4.8,0,1,1,18,13.2,4.8,4.8,0,0,1,22.8,18Z" transform="translate(-0.5 -0.586)" fill="#fb1"/>
    <path id="Path_52" data-name="Path 52" d="M13.15,3,10.5,5.889H5.9A2.9,2.9,0,0,0,3,8.778V26.111A2.9,2.9,0,0,0,5.9,29H29.1A2.9,2.9,0,0,0,32,26.111V8.778a2.9,2.9,0,0,0-2.9-2.889H24.5L21.85,3ZM17.5,24.667a7.222,7.222,0,1,1,7.25-7.222A7.239,7.239,0,0,1,17.5,24.667Z" transform="translate(0 0)" fill="#fb1"/>
  </g>
</svg>
